<mxfile host="Electron" modified="2024-01-06T00:29:33.517Z" agent="Mozilla/5.0 (Windows NT 10.0; Win64; x64) AppleWebKit/537.36 (KHTML, like Gecko) draw.io/22.1.16 Chrome/120.0.6099.109 Electron/28.1.0 Safari/537.36" etag="QKLmiZ1qJ0Aa5ThEin_2" version="22.1.16" type="device">
  <diagram name="Page-1" id="ImGA_BU5cl2Fdo_qvqDq">
    <mxGraphModel dx="1036" dy="606" grid="0" gridSize="10" guides="1" tooltips="1" connect="1" arrows="1" fold="1" page="1" pageScale="1" pageWidth="850" pageHeight="1100" math="0" shadow="0">
      <root>
        <mxCell id="0" />
        <mxCell id="1" parent="0" />
        <mxCell id="zeqLb9sDKWrayDaI19oI-2" value="Gateway Microservice" style="shape=folder;fontStyle=1;spacingTop=10;tabWidth=40;tabHeight=14;tabPosition=left;html=1;whiteSpace=wrap;fillColor=#FFF48C;" parent="1" vertex="1">
          <mxGeometry x="352" y="260" width="156" height="84" as="geometry" />
        </mxCell>
        <mxCell id="zeqLb9sDKWrayDaI19oI-3" value="User Management Microservice" style="shape=folder;fontStyle=1;spacingTop=10;tabWidth=40;tabHeight=14;tabPosition=left;html=1;whiteSpace=wrap;fillColor=#FFF48C;" parent="1" vertex="1">
          <mxGeometry x="107" y="148" width="156" height="84" as="geometry" />
        </mxCell>
        <mxCell id="zeqLb9sDKWrayDaI19oI-4" value="GitHub IntegrationMicroservice" style="shape=folder;fontStyle=1;spacingTop=10;tabWidth=40;tabHeight=14;tabPosition=left;html=1;whiteSpace=wrap;fillColor=#FFFFFF;" parent="1" vertex="1">
          <mxGeometry x="558" y="50" width="156" height="84" as="geometry" />
        </mxCell>
        <mxCell id="zeqLb9sDKWrayDaI19oI-5" value="Score Computation Microservice" style="shape=folder;fontStyle=1;spacingTop=10;tabWidth=40;tabHeight=14;tabPosition=left;html=1;whiteSpace=wrap;" parent="1" vertex="1">
          <mxGeometry x="119" y="334" width="156" height="84" as="geometry" />
        </mxCell>
        <mxCell id="zeqLb9sDKWrayDaI19oI-6" value="Tournament Microservice" style="shape=folder;fontStyle=1;spacingTop=10;tabWidth=40;tabHeight=14;tabPosition=left;html=1;whiteSpace=wrap;fillColor=#FFF48C;" parent="1" vertex="1">
          <mxGeometry x="526" y="430" width="156" height="84" as="geometry" />
        </mxCell>
        <mxCell id="zeqLb9sDKWrayDaI19oI-7" value="Battle Microservice" style="shape=folder;fontStyle=1;spacingTop=10;tabWidth=40;tabHeight=14;tabPosition=left;html=1;whiteSpace=wrap;fillColor=#FFFFFF;" parent="1" vertex="1">
          <mxGeometry x="237" y="466" width="156" height="84" as="geometry" />
        </mxCell>
        <mxCell id="zeqLb9sDKWrayDaI19oI-8" value="Notification Microservice" style="shape=folder;fontStyle=1;spacingTop=10;tabWidth=40;tabHeight=14;tabPosition=left;html=1;whiteSpace=wrap;fillColor=#FFF48C;" parent="1" vertex="1">
          <mxGeometry x="608" y="171" width="156" height="84" as="geometry" />
        </mxCell>
        <mxCell id="zeqLb9sDKWrayDaI19oI-11" value="DBMS" style="shape=folder;fontStyle=1;spacingTop=10;tabWidth=40;tabHeight=14;tabPosition=left;html=1;whiteSpace=wrap;fillColor=#FFF48C;" parent="1" vertex="1">
          <mxGeometry x="343" y="87" width="124" height="67" as="geometry" />
        </mxCell>
        <mxCell id="zeqLb9sDKWrayDaI19oI-13" value="Event Bus" style="shape=folder;fontStyle=1;spacingTop=10;tabWidth=40;tabHeight=14;tabPosition=left;html=1;whiteSpace=wrap;fillColor=#FFF48C;" parent="1" vertex="1">
          <mxGeometry x="632" y="303" width="129" height="65" as="geometry" />
        </mxCell>
        <mxCell id="3AxS1ZhMY5JfYpF9tmOW-1" value="" style="endArrow=none;dashed=1;html=1;rounded=0;entryX=0;entryY=0;entryDx=0;entryDy=49;entryPerimeter=0;exitX=0;exitY=0;exitDx=156;exitDy=49;exitPerimeter=0;" edge="1" parent="1" source="zeqLb9sDKWrayDaI19oI-3" target="zeqLb9sDKWrayDaI19oI-8">
          <mxGeometry width="50" height="50" relative="1" as="geometry">
            <mxPoint x="398" y="339" as="sourcePoint" />
            <mxPoint x="448" y="289" as="targetPoint" />
          </mxGeometry>
        </mxCell>
        <mxCell id="3AxS1ZhMY5JfYpF9tmOW-2" value="" style="endArrow=none;dashed=1;html=1;rounded=0;entryX=0;entryY=0;entryDx=0;entryDy=49;entryPerimeter=0;exitX=0;exitY=0;exitDx=124;exitDy=53.75;exitPerimeter=0;" edge="1" parent="1" source="zeqLb9sDKWrayDaI19oI-11">
          <mxGeometry width="50" height="50" relative="1" as="geometry">
            <mxPoint x="263" y="174" as="sourcePoint" />
            <mxPoint x="608" y="197" as="targetPoint" />
          </mxGeometry>
        </mxCell>
        <mxCell id="3AxS1ZhMY5JfYpF9tmOW-3" value="" style="endArrow=none;dashed=1;html=1;rounded=0;entryX=0.546;entryY=0.148;entryDx=0;entryDy=0;entryPerimeter=0;exitX=0.569;exitY=1;exitDx=0;exitDy=0;exitPerimeter=0;" edge="1" parent="1" source="zeqLb9sDKWrayDaI19oI-8" target="zeqLb9sDKWrayDaI19oI-13">
          <mxGeometry width="50" height="50" relative="1" as="geometry">
            <mxPoint x="473" y="232.25" as="sourcePoint" />
            <mxPoint x="614" y="288.25" as="targetPoint" />
          </mxGeometry>
        </mxCell>
        <mxCell id="3AxS1ZhMY5JfYpF9tmOW-4" value="" style="endArrow=none;dashed=1;html=1;rounded=0;entryX=0;entryY=0;entryDx=20;entryDy=0;entryPerimeter=0;exitX=0.75;exitY=1;exitDx=0;exitDy=0;exitPerimeter=0;" edge="1" parent="1" source="zeqLb9sDKWrayDaI19oI-2" target="zeqLb9sDKWrayDaI19oI-6">
          <mxGeometry width="50" height="50" relative="1" as="geometry">
            <mxPoint x="457.24" y="365" as="sourcePoint" />
            <mxPoint x="462.24" y="423" as="targetPoint" />
          </mxGeometry>
        </mxCell>
        <mxCell id="3AxS1ZhMY5JfYpF9tmOW-5" value="" style="endArrow=none;dashed=1;html=1;rounded=0;entryX=0;entryY=0;entryDx=98;entryDy=14;entryPerimeter=0;exitX=0;exitY=0;exitDx=124;exitDy=67;exitPerimeter=0;" edge="1" parent="1" source="zeqLb9sDKWrayDaI19oI-11" target="zeqLb9sDKWrayDaI19oI-6">
          <mxGeometry width="50" height="50" relative="1" as="geometry">
            <mxPoint x="550" y="341" as="sourcePoint" />
            <mxPoint x="627" y="427" as="targetPoint" />
          </mxGeometry>
        </mxCell>
        <mxCell id="3AxS1ZhMY5JfYpF9tmOW-6" value="" style="endArrow=none;dashed=1;html=1;rounded=0;entryX=0.905;entryY=0.183;entryDx=0;entryDy=0;entryPerimeter=0;exitX=0.5;exitY=1;exitDx=0;exitDy=0;exitPerimeter=0;" edge="1" parent="1" source="zeqLb9sDKWrayDaI19oI-13" target="zeqLb9sDKWrayDaI19oI-6">
          <mxGeometry width="50" height="50" relative="1" as="geometry">
            <mxPoint x="490" y="148" as="sourcePoint" />
            <mxPoint x="647" y="438" as="targetPoint" />
          </mxGeometry>
        </mxCell>
      </root>
    </mxGraphModel>
  </diagram>
</mxfile>
